<svg width="24" height="24" viewBox="0 0 24 24" fill="none" xmlns="http://www.w3.org/2000/svg">
<path d="M4.00009 14.8988C3.25714 14.1397 2.69666 13.2215 2.36113 12.2137C2.0256 11.2059 1.9238 10.135 2.06346 9.08208C2.20311 8.02913 2.58055 7.02178 3.16719 6.13631C3.75383 5.25085 4.53428 4.51049 5.44943 3.97133C6.36458 3.43216 7.39042 3.10833 8.44926 3.02435C9.5081 2.94038 10.5722 3.09846 11.5609 3.48664C12.5496 3.87481 13.4369 4.48289 14.1558 5.26481C14.8747 6.04674 15.4062 6.98201 15.7101 7.99978H17.5001C18.4656 7.99967 19.4056 8.3101 20.1811 8.88522C20.9566 9.46033 21.5266 10.2696 21.8069 11.1936C22.0871 12.1175 22.0628 13.1071 21.7374 14.0162C21.4121 14.9252 20.803 15.7055 20.0001 16.2418M9.20009 21.9998L12.2001 14.9998M9.00009 12.9998L6.00009 19.9998M17.0001 12.9998L14.0001 19.9998" stroke="black" stroke-width="2" stroke-linecap="round" stroke-linejoin="round"/>
</svg>
